<svg width="700" height="700" viewBox="0 0 700 700" fill="none" xmlns="http://www.w3.org/2000/svg">
<g clip-path="url(#clip0_1811_143)">
<path d="M184.201 11.0006C130.735 19.2673 93.8013 53.4006 65.268 121.001C57.4013 139.534 47.9346 166.467 43.9346 181.001C40.7346 192.734 40.468 195.801 40.468 221.001C40.468 246.467 40.868 250.601 46.068 283.401C49.1346 302.734 51.668 322.601 51.8013 327.401C51.9346 334.201 48.2013 353.667 35.8013 410.334C26.868 451.001 19.668 485.267 19.668 486.334C19.668 490.201 66.068 516.334 95.0013 528.734C106.735 533.801 137.268 545.267 137.801 544.734C137.935 544.467 133.401 536.601 127.668 527.001C121.935 517.534 117.668 509.134 118.201 508.334C118.735 507.667 122.868 502.334 127.401 496.734C131.935 491.134 135.668 486.201 135.668 485.934C135.668 485.534 132.335 486.334 128.335 487.534C123.001 489.267 120.335 491.001 118.068 494.334C111.001 504.601 99.5346 507.801 89.668 502.067C83.9346 498.734 78.3346 489.667 78.3346 483.667C78.3346 478.867 83.668 469.001 87.8013 465.934C93.0013 462.201 102.601 461.401 108.868 464.334C113.935 466.601 114.335 466.601 126.868 462.867C135.401 460.334 139.535 458.467 139.001 457.401C138.735 456.467 135.001 451.267 130.868 445.667C124.735 437.534 122.735 435.667 119.668 435.667C115.401 435.667 108.335 431.134 104.601 426.201C97.668 416.867 101.935 401.667 113.001 395.934C119.535 392.467 128.201 392.601 133.668 396.201C136.201 397.934 137.935 397.667 148.735 394.601C155.535 392.734 161.001 390.734 161.001 390.334C161.001 389.801 157.401 384.734 153.001 379.134C146.468 371.001 144.201 369.001 141.268 369.001C133.801 369.001 126.335 362.067 123.668 352.867C119.535 338.467 135.535 323.401 150.468 327.801C159.801 330.601 167.268 342.467 165.535 351.534C165.001 354.334 166.735 357.534 175.668 369.001C181.668 376.734 186.735 383.134 186.868 383.267C187.001 383.534 195.001 381.534 204.468 378.867C225.268 373.001 224.335 374.067 234.068 345.401C241.401 323.667 250.735 300.467 261.268 278.067L267.935 263.801L264.601 258.067C253.001 238.467 232.868 226.201 212.068 226.334C207.135 226.334 192.335 229.134 187.001 231.001C185.535 231.534 188.868 229.001 194.468 225.267C213.668 212.334 221.668 199.801 221.535 182.334C221.401 169.134 217.001 157.134 206.735 142.467C205.268 140.601 209.801 143.001 218.335 149.001C255.668 174.867 288.068 194.334 316.468 207.934C330.068 214.334 333.935 215.667 339.935 215.667H347.135L349.535 206.201C352.735 193.801 361.801 175.801 369.935 165.667C383.801 148.601 406.868 133.667 427.668 128.334C432.468 127.134 436.468 125.934 436.735 125.667C437.535 125.001 431.535 114.067 425.935 105.667C417.401 93.1339 396.735 73.5339 380.601 62.7339C349.268 41.9339 305.668 24.6006 260.335 15.1339C230.735 8.86726 206.068 7.53392 184.201 11.0006Z" fill="#FB4454"/>
<path d="M443.002 147.667C413.402 152.067 387.002 171.667 375.535 197.534C371.935 205.667 366.335 227.934 366.335 234.2C366.335 241.934 365.269 242.467 356.335 239.4C316.068 225.8 276.602 274.6 247.802 373.667L243.535 388.334L211.535 427.667C193.935 449.267 171.402 477 161.535 489.267L143.535 511.4L152.335 525.534C192.068 589.934 244.202 642.067 309.402 682.734L323.668 691.667L383.802 642.867C416.869 615.934 446.602 592.467 449.802 590.734C453.135 588.867 470.869 582.467 489.402 576.334C529.002 563.4 540.069 559 556.602 550.334C573.802 541.4 586.469 531.4 604.602 512.467C648.335 466.867 668.335 436.2 677.935 399.667C681.669 385.134 682.602 361.934 679.802 348.334C670.869 304.867 643.002 262.734 591.135 214.6C537.535 164.734 485.669 141.267 443.002 147.667ZM329.002 425.134C339.002 430.734 342.735 444.6 336.868 454.334L334.068 458.867L337.135 476.067C339.268 487.8 340.868 493.534 342.335 494.2C343.402 494.867 351.402 496.6 360.069 498.334L375.802 501.4L381.002 498.467C397.135 489.4 415.935 503.134 412.469 521.667C411.269 527.8 404.202 535 397.269 537C389.535 539.4 381.935 537 375.402 530.2C370.869 525.534 369.135 524.734 358.335 522.467C349.135 520.6 346.335 520.334 346.335 521.667C346.335 522.6 347.269 528.334 348.469 534.334C350.335 544.2 351.002 545.667 356.335 550.734C365.535 559.534 366.202 571.4 357.935 580.2C348.869 589.667 336.468 589.8 327.002 580.467C321.668 575.134 320.468 574.6 309.002 572.467C302.202 571.267 296.335 570.6 295.935 571C295.535 571.4 296.202 577.4 297.402 584.334C299.535 596.2 300.068 597.267 304.868 601.667C319.668 615 310.735 638.334 290.868 638.334C282.868 638.334 276.602 634.734 272.468 627.8C268.868 621.534 269.002 611.4 273.002 606.067L276.068 601.934L272.868 583.8L269.668 565.667L251.935 562.467L234.068 559.267L228.868 562.334C214.068 570.6 197.002 561 197.002 544.334C197.002 535.4 200.868 529.4 209.268 525.267C218.335 520.734 225.002 522.067 232.868 529.8C238.335 535.4 239.402 535.8 251.268 537.8C258.202 539 264.068 539.667 264.335 539.4C264.735 539.134 263.935 533.267 262.868 526.467C260.735 514.6 260.335 513.667 255.002 508.467C240.468 494.6 249.668 471.667 269.668 471.667C275.802 471.667 281.135 474.467 285.935 480.067C289.268 484.067 291.002 484.867 301.402 486.867C307.935 488.2 313.535 488.867 313.935 488.467C314.335 488.067 313.668 482.467 312.468 476.2C310.335 465.534 309.668 464.067 304.335 458.867C300.468 455.134 298.202 451.667 297.668 448.467C294.202 430.067 312.868 416.067 329.002 425.134Z" fill="#FB4454"/>
<path d="M287.267 526.6C289 536.333 290.6 544.333 290.733 544.467C291.667 545.4 325.133 550.6 325.933 549.933C326.6 549.133 322.2 523.933 320.2 516.867C319.8 515.4 315.267 514.067 303.8 511.933C295 510.333 287 509 286.067 509C284.467 509 284.6 512.067 287.267 526.6Z" fill="#FB4454"/>
<path d="M159.8 416.467C151.533 418.867 144.333 421.267 143.933 421.534C143.667 421.934 148.067 428.467 153.8 436.2C161.933 447.267 164.6 449.934 165.933 448.734C168.6 446.6 186.333 424.2 186.333 423C186.333 421.134 178.067 411.667 176.6 411.8C175.667 411.934 168.2 413.934 159.8 416.467Z" fill="#FB4454"/>
</g>
<defs>
<clipPath id="clip0_1811_143">
<rect width="682.667" height="682.667" fill="white" transform="translate(9 9)"/>
</clipPath>
</defs>
</svg>
