<svg width="1295" height="1295" viewBox="0 0 1295 1295" fill="none" xmlns="http://www.w3.org/2000/svg">
<rect width="1295" height="1295" rx="100" fill="#242424"/>
<path d="M596.847 1020H333V276H599.028C673.894 276 738.341 290.895 792.37 320.684C846.4 350.23 887.951 392.734 917.025 448.195C946.342 503.656 961 570.016 961 647.273C961 724.773 946.342 791.375 917.025 847.078C887.951 902.781 846.157 945.527 791.643 975.316C737.372 1005.11 672.44 1020 596.847 1020ZM490.363 885.223H590.306C636.824 885.223 675.953 876.988 707.692 860.52C739.674 843.809 763.66 818.016 779.65 783.141C795.883 748.023 804 702.734 804 647.273C804 592.297 795.883 547.371 779.65 512.496C763.66 477.621 739.795 451.949 708.056 435.48C676.316 419.012 637.188 410.777 590.669 410.777H490.363V885.223Z" fill="white"/>
</svg>
