<svg width="21" height="21" viewBox="0 0 21 21" fill="none" xmlns="http://www.w3.org/2000/svg">
<path fill-rule="evenodd" clip-rule="evenodd" d="M16.2246 6.5494C16.2821 6.53133 16.3577 6.56746 16.4333 6.66682C16.4333 6.66682 16.4333 6.66682 19.8504 9.99672C20.05 10.1954 20.05 10.4965 19.8504 10.644C19.8504 10.644 19.8504 10.644 16.4333 14.0251C16.3577 14.1245 16.2821 14.1486 16.2246 14.1185C16.1671 14.0883 16.1309 14.001 16.1309 13.8746V6.76617C16.1309 6.64273 16.1671 6.56746 16.2246 6.5494Z" fill="#ED1C24"/>
<path fill-rule="evenodd" clip-rule="evenodd" d="M10.379 1H10.6209L10.8538 1.09634C10.8538 1.09634 10.8538 1.09634 14.3707 4.57679C14.522 4.7755 14.4705 4.92603 14.2195 4.92603C14.2195 4.92603 14.2195 4.92603 12.762 4.92603C12.511 4.92603 12.3114 5.12474 12.3114 5.37464C12.3114 5.37464 12.3114 5.37464 12.3114 7.95787C12.3114 8.20777 12.1088 8.40648 11.8064 8.40648C11.8064 8.40648 11.8064 8.40648 9.24501 8.40648C8.99401 8.40648 8.7914 8.20777 8.7914 7.95787C8.7914 7.95787 8.7914 7.95787 8.7914 5.37464C8.7914 5.12474 8.59182 4.92603 8.3378 4.92603H6.78042C6.52943 4.92603 6.47802 4.7755 6.62922 4.57679C6.62922 4.57679 6.62922 4.57679 10.1492 1.09634L10.379 1V1Z" fill="#ED1C24"/>
<path fill-rule="evenodd" clip-rule="evenodd" d="M4.86925 6.47306C4.93276 6.50317 4.97207 6.59048 4.97207 6.71693V13.9729C4.97207 14.0993 4.93276 14.1746 4.86925 14.1987C4.80877 14.2228 4.72108 14.1987 4.61826 14.1234C4.61826 14.1234 4.61826 14.1234 1.14969 10.643C0.950103 10.4954 0.950103 10.1944 1.14969 9.99566C1.14969 9.99566 1.14969 9.99566 4.61826 6.5664C4.72108 6.46704 4.80877 6.44296 4.86925 6.47306Z" fill="#ED1C24"/>
<path fill-rule="evenodd" clip-rule="evenodd" d="M9.24487 12.1855C9.24487 12.1855 9.24487 12.1855 11.8062 12.1855C12.1086 12.1855 12.3112 12.3843 12.3112 12.6342C12.3112 12.6342 12.3112 12.6341 12.3112 15.3679C12.3112 15.666 12.5108 15.8647 12.7618 15.8647H14.1196C14.3706 15.8647 14.4704 16.0122 14.2708 16.1628C14.2708 16.1628 14.2708 16.1628 10.8537 19.592C10.7508 19.6914 10.6269 19.7426 10.4998 19.7426C10.3759 19.7426 10.2488 19.6914 10.1491 19.592C10.1491 19.592 10.1491 19.592 6.7319 16.1628C6.52928 16.0122 6.62908 15.8647 6.88007 15.8647C6.88007 15.8647 6.88007 15.8647 8.33766 15.8647C8.59168 15.8647 8.79126 15.666 8.79126 15.3679C8.79126 15.3679 8.79126 15.3679 8.79126 12.6342C8.79126 12.3843 8.99387 12.1855 9.24487 12.1855V12.1855Z" fill="#ED1C24"/>
</svg>
