<svg width="700" height="700" viewBox="0 0 700 700" fill="none" xmlns="http://www.w3.org/2000/svg">
<g clip-path="url(#clip0_1811_153)">
<path d="M185.668 105.4C96.8678 135 22.4678 160.2 20.0678 161.4C7.80109 167.8 5.40109 184.866 15.6678 193.4C18.4678 195.8 65.6678 212.066 183.934 251.533C274.334 281.666 349.534 306.333 351.001 306.333C355.534 306.333 677.934 198.333 682.601 195.266C687.668 191.8 691.668 184.733 691.668 179C691.668 173.266 687.668 166.2 682.601 162.733C677.534 159.4 355.268 51.6663 350.334 51.6663C348.468 51.6663 274.468 75.933 185.668 105.4Z" fill="#3C58A0"/>
<path d="M627.399 256.733L608.999 262.867V362.467V461.933L603.399 464.467C587.266 471.667 574.199 486.467 568.999 503.267C566.466 511.4 566.333 515.667 566.333 572.867C566.333 642.2 566.066 640.333 576.999 645.933C582.733 649 583.799 649 628.866 649C672.599 649 675.133 648.867 680.466 646.2C684.599 644.2 686.866 641.933 688.866 637.8C691.533 632.333 691.666 629.933 691.666 573.933C691.666 535.933 691.133 513.4 690.199 508.733C686.599 491.667 673.133 474.067 657.533 466.067L648.999 461.667V355.933C648.999 272.333 648.599 250.333 647.399 250.467C646.466 250.467 637.399 253.4 627.399 256.733Z" fill="#3C58A0"/>
<path d="M137 345.933C137 383.266 137.667 416.066 138.333 418.866C141.133 431.4 181.8 464.2 216.333 481.933C287 518.2 367.933 524.2 445 498.733C462.733 492.866 492.6 478.333 509 467.666C536.733 449.4 560.333 427.933 562.333 418.866C563.4 414.466 564.333 278.333 563.267 278.333C563.133 278.333 517.933 293.4 463 311.8L363 345.4H350.333H337.667L237.667 311.8C182.733 293.4 137.533 278.333 137.4 278.333C137.133 278.333 137 308.733 137 345.933Z" fill="#3C58A0"/>
</g>
<defs>
<clipPath id="clip0_1811_153">
<rect width="682.667" height="682.667" fill="white" transform="translate(9 9)"/>
</clipPath>
</defs>
</svg>
