<svg width="541" height="612" viewBox="0 0 541 612" fill="none" xmlns="http://www.w3.org/2000/svg">
<path d="M445.947 294.628L346.507 225.209V583.732C346.523 591.131 343.614 598.237 338.412 603.503C335.87 606.099 332.834 608.161 329.483 609.57C326.133 610.978 322.535 611.705 318.9 611.706V611.678H227.912V611.706C220.333 611.706 213.442 608.571 208.442 603.517L208.428 603.503L208.414 603.489L208.399 603.474C203.2 598.219 200.29 591.122 200.305 583.732V49.2039C200.305 46.9563 201.365 44.7372 203.328 43.3629L257.582 5.20991L257.597 5.22422L257.611 5.20991C262.195 1.94579 267.668 0.184883 273.298 0.15625C278.929 0.170566 284.416 1.91716 289 5.16696L528.869 172.639C534.904 176.898 539.025 183.353 540.346 190.617C541.667 197.88 540.082 205.371 535.932 211.479L484.357 287.442C482.334 290.473 479.722 293.066 476.674 295.066C473.627 297.065 470.208 298.431 466.62 299.081C463.059 299.768 459.397 299.739 455.847 298.995C452.286 298.223 448.918 296.737 445.947 294.628Z" fill="#008DD2"/>
<path d="M177.025 234.5L95.8799 291.522C92.9177 293.64 89.5616 295.144 86.0089 295.946C82.4601 296.695 78.7975 296.729 75.2354 296.046C71.4228 295.373 67.8012 293.884 64.6194 291.68C61.8082 289.717 59.3804 287.257 57.4562 284.421L5.80906 208.573C1.65215 202.47 0.0669748 194.977 1.39649 187.715C2.67155 180.671 6.58269 174.114 12.8147 169.733L169.504 59.8269C172.656 57.6222 176.997 58.3953 179.203 61.5449L179.26 61.6308C180.075 62.8194 180.51 64.2272 180.507 65.668H180.535V228.344C180.535 230.878 179.203 233.212 177.025 234.5Z" fill="#061F5E"/>
</svg>
